<svg width="44" height="44" viewBox="0 0 44 44" fill="none" xmlns="http://www.w3.org/2000/svg">
<circle cx="22" cy="22" r="22" fill="#29E3B6"/>
<path d="M24.6756 19.5656C24.7498 19.4746 24.7862 19.3604 24.7779 19.245C24.7696 19.1296 24.717 19.0213 24.6305 18.9411C24.544 18.861 24.4296 18.8146 24.3096 18.8111C24.1897 18.8076 24.0726 18.8472 23.9812 18.9222L15.3006 26.0386L10.7166 24.3303C10.5171 24.2567 10.3438 24.1296 10.2172 23.9639C10.0906 23.7982 10.016 23.601 10.0023 23.3957C9.98859 23.1904 10.0363 22.9856 10.1399 22.8057C10.2434 22.6257 10.3984 22.4782 10.5864 22.3806L29.6169 12.1081C29.7665 12.0305 29.9351 11.9934 30.1048 12.0009C30.2745 12.0084 30.4389 12.0602 30.5805 12.1507C30.722 12.2412 30.8354 12.3671 30.9086 12.5148C30.9817 12.6626 31.0119 12.8267 30.9958 12.9896L29.3264 29.7577C29.3097 29.9297 29.2516 30.0955 29.1566 30.242C29.0617 30.3885 28.9326 30.5117 28.7796 30.6017C28.6265 30.6916 28.4538 30.7459 28.2752 30.7603C28.0966 30.7746 27.9169 30.7486 27.7506 30.6842L22.1716 28.6027L18.6693 31.7652C18.5401 31.8816 18.3782 31.9589 18.2039 31.9876C18.0295 32.0163 17.8502 31.995 17.6882 31.9266C17.5262 31.8581 17.3886 31.7454 17.2924 31.6024C17.1962 31.4593 17.1456 31.2922 17.1469 31.1218V28.6381L24.6756 19.5656Z" fill="white"/>
</svg>
